<?xml version="1.0" standalone="no"?>
<!DOCTYPE svg PUBLIC "-//W3C//DTD SVG 20010904//EN"
 "http://www.w3.org/TR/2001/REC-SVG-20010904/DTD/svg10.dtd">
<svg version="1.0" xmlns="http://www.w3.org/2000/svg"
 width="225.000000pt" height="225.000000pt" viewBox="0 0 225.000000 225.000000"
 preserveAspectRatio="xMidYMid meet">

<g transform="translate(0.000000,225.000000) scale(0.100000,-0.100000)"
fill="#000000" stroke="none">
<path d="M383 1675 c-144 -95 -234 -162 -238 -175 -15 -48 11 -72 238 -222
234 -156 265 -169 301 -129 11 12 16 31 14 53 -3 30 -14 40 -128 118 l-125 85
560 3 c342 1 581 -2 614 -8 166 -31 302 -162 341 -329 51 -216 -104 -452 -328
-500 -36 -7 -236 -11 -612 -11 l-559 0 -20 -26 c-28 -35 -26 -59 4 -90 l25
-25 593 3 592 3 74 27 c234 86 381 290 381 531 0 250 -158 463 -400 539 l-75
23 -592 0 c-326 0 -593 2 -593 5 0 3 49 37 107 75 130 85 143 97 143 134 0 31
-39 71 -69 71 -9 0 -120 -70 -248 -155z"/>
</g>
</svg>
